<svg width="160" height="37" viewBox="0 0 160 37" fill="none" xmlns="http://www.w3.org/2000/svg">
<path d="M27.1782 18.5988V25.4249C27.1782 26.0011 27.4142 26.5264 27.7939 26.9082C28.1736 27.29 28.6966 27.5273 29.2691 27.5273H36.0577V36.6268H29.2691C26.1986 36.6268 23.4121 35.3697 21.3955 33.3414C19.3789 31.3132 18.1287 28.5118 18.1287 25.4244V18.5982H27.1782V18.5988Z" fill="#0086FF"/>
<path fill-rule="evenodd" clip-rule="evenodd" d="M27.1782 18.5988H36.2278V9.49868H27.1782V18.5988Z" fill="#00AEEF"/>
<path opacity="0.51" fill-rule="evenodd" clip-rule="evenodd" d="M9.07861 18.5988H18.1282V9.49868H9.07861V18.5988Z" fill="#00AEEF"/>
<path opacity="0.31" fill-rule="evenodd" clip-rule="evenodd" d="M0 18.5988H9.04956V9.49868H0V18.5988Z" fill="#00AEEF"/>
<path fill-rule="evenodd" clip-rule="evenodd" d="M18.1282 9.49868H27.1783V0.399113H18.1282V9.49868Z" fill="#71C3FF"/>
<path d="M148.579 34.2742V27.6928H150.058V28.8078H150.143C150.409 28.0564 151.076 27.6079 151.949 27.6079C152.846 27.6079 153.476 28.0564 153.73 28.8078H153.803C154.094 28.0806 154.821 27.6079 155.779 27.6079C156.979 27.6079 157.827 28.3836 157.827 29.8502V34.2742H156.288V30.0926C156.288 29.2684 155.791 28.9048 155.161 28.9048C154.397 28.9048 153.961 29.426 153.961 30.1653V34.2742H152.458V30.032C152.458 29.3533 151.997 28.9048 151.343 28.9048C150.676 28.9048 150.131 29.4502 150.131 30.2744V34.2742H148.579Z" fill="white"/>
<path d="M144.334 34.4075C142.347 34.4075 141.135 33.0864 141.135 31.0259C141.135 28.9897 142.371 27.6079 144.249 27.6079C145.862 27.6079 147.255 28.6139 147.255 30.9289V31.4137H142.662C142.68 32.5349 143.34 33.1955 144.346 33.1955C145.025 33.1955 145.486 32.9046 145.68 32.5167H147.195C146.916 33.656 145.862 34.4075 144.334 34.4075ZM142.674 30.3593H145.777C145.765 29.4623 145.171 28.8078 144.274 28.8078C143.34 28.8078 142.722 29.5169 142.674 30.3593Z" fill="white"/>
<path d="M140.174 27.6928V28.8806H138.877V32.2985C138.877 32.9288 139.192 33.0621 139.58 33.0621C139.762 33.0621 140.065 33.05 140.259 33.0379V34.2984C140.077 34.3348 139.774 34.359 139.386 34.359C138.223 34.359 137.326 33.7893 137.338 32.5531V28.8806H136.392V27.6928H137.338V26.1171H138.877V27.6928H140.174Z" fill="white"/>
<path d="M133.99 29.5714C133.893 29.0745 133.481 28.7594 132.826 28.7594C132.16 28.7594 131.675 29.0866 131.687 29.5351C131.675 29.8744 131.953 30.129 132.62 30.2865L133.735 30.5168C134.984 30.7956 135.578 31.3653 135.59 32.3107C135.578 33.5469 134.499 34.4075 132.778 34.4075C131.105 34.4075 130.111 33.656 129.954 32.3955H131.529C131.626 32.953 132.063 33.2318 132.778 33.2318C133.517 33.2318 134.014 32.9288 134.014 32.444C134.014 32.0682 133.711 31.8258 133.056 31.6804L132.002 31.4501C130.778 31.2077 130.148 30.5653 130.148 29.6199C130.148 28.4079 131.19 27.6079 132.802 27.6079C134.378 27.6079 135.347 28.3715 135.456 29.5714H133.99Z" fill="white"/>
<path d="M124.217 36.7468C123.914 36.7468 123.611 36.7346 123.417 36.7104V35.4741C123.611 35.4862 123.866 35.4983 124.072 35.4983C124.448 35.4983 124.763 35.462 125.029 34.759L125.163 34.4075L122.763 27.6928H124.399L125.926 32.6622H125.999L127.526 27.6928H129.163L126.52 35.0741C126.145 36.1286 125.454 36.7468 124.217 36.7468Z" fill="white"/>
<path d="M120.288 27.9109C120.215 27.1595 119.573 26.7231 118.627 26.7231C117.633 26.7231 117.027 27.2079 117.027 27.8624C117.027 28.6018 117.803 28.9048 118.53 29.0745L119.354 29.2927C120.663 29.5957 121.924 30.2865 121.924 31.8137C121.924 33.353 120.712 34.4075 118.603 34.4075C116.555 34.4075 115.27 33.4257 115.197 31.6925H116.748C116.821 32.6137 117.597 33.0621 118.591 33.0621C119.633 33.0621 120.348 32.5531 120.348 31.8016C120.348 31.1107 119.706 30.8198 118.76 30.5774L117.767 30.3229C116.324 29.9472 115.427 29.2199 115.427 27.9594C115.427 26.408 116.809 25.3778 118.651 25.3778C120.518 25.3778 121.778 26.4322 121.803 27.9109H120.288Z" fill="white"/>
<path d="M108.125 34.4075C106.137 34.4075 104.925 33.0864 104.925 31.0259C104.925 28.9897 106.161 27.6079 108.04 27.6079C109.652 27.6079 111.046 28.6139 111.046 30.9289V31.4137H106.452C106.47 32.5349 107.131 33.1955 108.137 33.1955C108.816 33.1955 109.276 32.9046 109.47 32.5167H110.985C110.707 33.656 109.652 34.4075 108.125 34.4075ZM106.464 30.3593H109.567C109.555 29.4623 108.961 28.8078 108.064 28.8078C107.131 28.8078 106.513 29.5169 106.464 30.3593Z" fill="white"/>
<path d="M100.62 34.2742V27.6928H102.123V28.7836H102.195C102.426 28.0321 103.068 27.5958 103.819 27.5958C103.989 27.5958 104.232 27.6079 104.377 27.6322V29.0624C104.244 29.0139 103.916 28.9654 103.662 28.9654C102.801 28.9654 102.171 29.5593 102.171 30.3956V34.2742H100.62Z" fill="white"/>
<path d="M93.3687 32.4197C93.3687 30.941 94.5928 30.5047 95.817 30.432C96.2715 30.4017 97.2169 30.3471 97.5017 30.335V29.8138C97.5017 29.1593 97.0775 28.7836 96.3139 28.7836C95.6231 28.7836 95.1988 29.0987 95.0776 29.5714H93.5868C93.6959 28.4564 94.7019 27.6079 96.3503 27.6079C97.5987 27.6079 99.041 28.117 99.041 29.8744V34.2742H97.5623V33.3651H97.5139C97.223 33.9227 96.6048 34.4075 95.5746 34.4075C94.314 34.4075 93.3687 33.7166 93.3687 32.4197ZM94.8595 32.4076C94.8595 32.9773 95.32 33.2682 95.9746 33.2682C96.9078 33.2682 97.5139 32.65 97.5139 31.9107V31.3653C97.229 31.3834 96.3685 31.444 96.0594 31.4622C95.32 31.5228 94.8595 31.8258 94.8595 32.4076Z" fill="white"/>
<path d="M84.9178 34.2742L83.0513 27.6928H84.6269L85.7905 32.3228H85.8511L87.0268 27.6928H88.5903L89.7781 32.2985H89.8387L90.9902 27.6928H92.5658L90.6993 34.2742H89.0873L87.851 29.8138H87.7661L86.5298 34.2742H84.9178Z" fill="white"/>
<path d="M76.176 36.7467V27.6928H77.6911V28.7715H77.788C78.0305 28.2988 78.5153 27.6079 79.6788 27.6079C81.1939 27.6079 82.3938 28.7957 82.3938 30.9895C82.3938 33.1591 81.2303 34.3954 79.6788 34.3954C78.5395 34.3954 78.0305 33.7166 77.788 33.2318H77.7274V36.7467H76.176ZM77.6911 30.9774C77.6911 32.2622 78.2486 33.1227 79.2546 33.1227C80.2727 33.1227 80.8182 32.2258 80.8182 30.9774C80.8182 29.7532 80.2849 28.8684 79.2546 28.8684C78.2486 28.8684 77.6911 29.7048 77.6911 30.9774Z" fill="white"/>
<path d="M73.0337 31.5107V27.6928H74.573V34.2742H73.0822V33.1106H73.0094C72.7064 33.8378 72.0156 34.359 71.0338 34.359C69.7369 34.359 68.84 33.4621 68.8279 31.8864V27.6928H70.3793V31.644C70.3793 32.4803 70.8762 33.0136 71.6277 33.0136C72.3065 33.0136 73.0337 32.5167 73.0337 31.5107Z" fill="white"/>
<path d="M64.3527 34.4075C62.4377 34.4075 61.2014 33.05 61.2014 31.0138C61.2014 28.9654 62.4377 27.6079 64.3527 27.6079C66.2799 27.6079 67.5041 28.9654 67.5041 31.0138C67.5041 33.05 66.2799 34.4075 64.3527 34.4075ZM64.3649 33.1712C65.4193 33.1712 65.9405 32.2137 65.9405 31.0016C65.9405 29.8017 65.4193 28.8321 64.3649 28.8321C63.2861 28.8321 62.765 29.8017 62.765 31.0016C62.765 32.2137 63.2861 33.1712 64.3649 33.1712Z" fill="white"/>
<path d="M56.8958 34.2742V27.6928H58.3987V28.7836H58.4714C58.7017 28.0321 59.3441 27.5958 60.0956 27.5958C60.2652 27.5958 60.5077 27.6079 60.6531 27.6322V29.0624C60.5198 29.0139 60.1925 28.9654 59.938 28.9654C59.0774 28.9654 58.4472 29.5593 58.4472 30.3956V34.2742H56.8958Z" fill="white"/>
<path d="M53.7294 28.2988C53.4506 27.3655 52.7234 26.7958 51.6568 26.7958C50.2387 26.7958 49.2206 27.8988 49.2206 29.8744C49.2206 31.8743 50.2266 32.9773 51.6932 32.9773C53.0143 32.9773 53.8627 32.1773 53.887 30.9289H51.8507V29.6805H55.4141V30.735C55.4141 32.9894 53.8627 34.3954 51.6932 34.3954C49.2691 34.3954 47.6328 32.6743 47.6328 29.8866C47.6328 27.0746 49.3418 25.3778 51.6447 25.3778C53.584 25.3778 55.0748 26.5777 55.3414 28.2988H53.7294Z" fill="white"/>
<path d="M147.237 19.5147V0.541286H159.974V3.79088H151.168V8.40321H159.318V11.6528H151.168V16.2651H160V19.5147H147.237Z" fill="white"/>
<path d="M143.772 0.541286V19.5147H140.365L132.032 7.45978H131.874V19.5147H127.943V0.541286H131.403L139.684 12.5962H139.867V0.541286H143.772Z" fill="white"/>
<path d="M124.845 10.028C124.845 16.2127 120.992 19.7768 115.987 19.7768C110.929 19.7768 107.103 16.1865 107.103 10.028C107.103 3.84329 110.929 0.279221 115.987 0.279221C120.992 0.279221 124.845 3.84329 124.845 10.028ZM120.835 10.028C120.835 5.96601 118.922 3.76467 115.987 3.76467C113.052 3.76467 111.112 5.96601 111.112 10.028C111.112 14.09 113.052 16.2913 115.987 16.2913C118.922 16.2913 120.835 14.09 120.835 10.028Z" fill="white"/>
<path d="M90.6651 19.5147V17.1561L100.178 3.79088H90.6389V0.541286H105.105V2.89986L95.6181 16.2651H105.131V19.5147H90.6651Z" fill="white"/>
<path d="M87.4356 0.541286V19.5147H83.5046V0.541286H87.4356Z" fill="white"/>
<path d="M66.1494 19.5147V0.541286H73.6969C77.8899 0.541286 79.9864 2.55918 79.9864 5.41568C79.9864 7.64322 78.545 9.03216 76.5796 9.47767V9.66112C78.7285 9.76594 80.7464 11.4694 80.7464 14.2734C80.7464 17.2872 78.4926 19.5147 74.1948 19.5147H66.1494ZM73.4086 16.2651C75.6885 16.2651 76.6582 15.3217 76.6582 13.9066C76.6582 12.308 75.4527 11.1811 73.5134 11.1811H70.0804V16.2651H73.4086ZM73.1203 8.48183C74.7713 8.48183 76.003 7.5646 76.003 6.04463C76.003 4.6819 75.0072 3.73847 73.1989 3.73847H70.0804V8.48183H73.1203Z" fill="white"/>
<path d="M47.9036 3.79088V0.541286H63.444V3.79088H57.6261V19.5147H53.7214V3.79088H47.9036Z" fill="white"/>
</svg>
