<svg width="160" height="38" viewBox="0 0 160 38" fill="none" xmlns="http://www.w3.org/2000/svg">
<path d="M27.1782 19.0361V25.8622C27.1782 26.4384 27.4142 26.9637 27.7939 27.3455C28.1736 27.7273 28.6966 27.9646 29.2691 27.9646H36.0577V37.0642H29.2691C26.1986 37.0642 23.4121 35.807 21.3955 33.7787C19.3789 31.7505 18.1287 28.9491 18.1287 25.8617V19.0355H27.1782V19.0361Z" fill="#0086FF"/>
<path fill-rule="evenodd" clip-rule="evenodd" d="M27.1782 19.0361H36.2278V9.93599H27.1782V19.0361Z" fill="#00AEEF"/>
<path opacity="0.51" fill-rule="evenodd" clip-rule="evenodd" d="M9.07861 19.0361H18.1282V9.93599H9.07861V19.0361Z" fill="#00AEEF"/>
<path opacity="0.31" fill-rule="evenodd" clip-rule="evenodd" d="M0 19.0361H9.04956V9.93599H0V19.0361Z" fill="#00AEEF"/>
<path fill-rule="evenodd" clip-rule="evenodd" d="M18.1282 9.93599H27.1783V0.836422H18.1282V9.93599Z" fill="#71C3FF"/>
<path d="M148.579 34.7115V28.1301H150.058V29.2451H150.143C150.409 28.4937 151.076 28.0452 151.949 28.0452C152.846 28.0452 153.476 28.4937 153.73 29.2451H153.803C154.094 28.5179 154.821 28.0452 155.779 28.0452C156.979 28.0452 157.827 28.8209 157.827 30.2875V34.7115H156.288V30.5299C156.288 29.7057 155.791 29.3421 155.161 29.3421C154.397 29.3421 153.961 29.8633 153.961 30.6026V34.7115H152.458V30.4693C152.458 29.7906 151.997 29.3421 151.343 29.3421C150.676 29.3421 150.131 29.8875 150.131 30.7117V34.7115H148.579Z" fill="white"/>
<path d="M144.334 34.8448C142.347 34.8448 141.135 33.5237 141.135 31.4632C141.135 29.427 142.371 28.0452 144.249 28.0452C145.862 28.0452 147.255 29.0512 147.255 31.3662V31.851H142.662C142.68 32.9722 143.34 33.6328 144.346 33.6328C145.025 33.6328 145.486 33.3419 145.68 32.954H147.195C146.916 34.0933 145.862 34.8448 144.334 34.8448ZM142.674 30.7966H145.777C145.765 29.8997 145.171 29.2451 144.274 29.2451C143.34 29.2451 142.722 29.9542 142.674 30.7966Z" fill="white"/>
<path d="M140.174 28.1301V29.3179H138.877V32.7358C138.877 33.3661 139.192 33.4994 139.58 33.4994C139.762 33.4994 140.065 33.4873 140.259 33.4752V34.7357C140.077 34.7721 139.774 34.7963 139.386 34.7963C138.223 34.7963 137.326 34.2267 137.338 32.9904V29.3179H136.392V28.1301H137.338V26.5544H138.877V28.1301H140.174Z" fill="white"/>
<path d="M133.99 30.0087C133.893 29.5118 133.481 29.1967 132.826 29.1967C132.16 29.1967 131.675 29.5239 131.687 29.9724C131.675 30.3117 131.953 30.5663 132.62 30.7238L133.735 30.9541C134.984 31.2329 135.578 31.8026 135.59 32.748C135.578 33.9843 134.499 34.8448 132.778 34.8448C131.105 34.8448 130.111 34.0933 129.954 32.8328H131.529C131.626 33.3903 132.063 33.6691 132.778 33.6691C133.517 33.6691 134.014 33.3661 134.014 32.8813C134.014 32.5056 133.711 32.2631 133.056 32.1177L132.002 31.8874C130.778 31.645 130.148 31.0026 130.148 30.0572C130.148 28.8452 131.19 28.0452 132.802 28.0452C134.378 28.0452 135.347 28.8088 135.456 30.0087H133.99Z" fill="white"/>
<path d="M124.217 37.1841C123.914 37.1841 123.611 37.1719 123.417 37.1477V35.9114C123.611 35.9235 123.866 35.9356 124.072 35.9356C124.448 35.9356 124.763 35.8993 125.029 35.1963L125.163 34.8448L122.763 28.1301H124.399L125.926 33.0995H125.999L127.526 28.1301H129.163L126.52 35.5114C126.145 36.5659 125.454 37.1841 124.217 37.1841Z" fill="white"/>
<path d="M120.288 28.3482C120.215 27.5968 119.573 27.1604 118.627 27.1604C117.633 27.1604 117.027 27.6452 117.027 28.2998C117.027 29.0391 117.803 29.3421 118.53 29.5118L119.354 29.73C120.663 30.033 121.924 30.7238 121.924 32.251C121.924 33.7903 120.712 34.8448 118.603 34.8448C116.555 34.8448 115.27 33.863 115.197 32.1298H116.748C116.821 33.051 117.597 33.4994 118.591 33.4994C119.633 33.4994 120.348 32.9904 120.348 32.2389C120.348 31.548 119.706 31.2571 118.76 31.0147L117.767 30.7602C116.324 30.3845 115.427 29.6572 115.427 28.3967C115.427 26.8453 116.809 25.8151 118.651 25.8151C120.518 25.8151 121.778 26.8695 121.803 28.3482H120.288Z" fill="white"/>
<path d="M108.125 34.8448C106.137 34.8448 104.925 33.5237 104.925 31.4632C104.925 29.427 106.161 28.0452 108.04 28.0452C109.652 28.0452 111.046 29.0512 111.046 31.3662V31.851H106.452C106.47 32.9722 107.131 33.6328 108.137 33.6328C108.816 33.6328 109.276 33.3419 109.47 32.954H110.985C110.707 34.0933 109.652 34.8448 108.125 34.8448ZM106.464 30.7966H109.567C109.555 29.8997 108.961 29.2451 108.064 29.2451C107.131 29.2451 106.513 29.9542 106.464 30.7966Z" fill="white"/>
<path d="M100.62 34.7115V28.1301H102.123V29.2209H102.195C102.426 28.4694 103.068 28.0331 103.819 28.0331C103.989 28.0331 104.232 28.0452 104.377 28.0695V29.4997C104.244 29.4512 103.916 29.4027 103.662 29.4027C102.801 29.4027 102.171 29.9966 102.171 30.8329V34.7115H100.62Z" fill="white"/>
<path d="M93.3687 32.857C93.3687 31.3784 94.5928 30.942 95.817 30.8693C96.2715 30.839 97.2169 30.7844 97.5017 30.7723V30.2511C97.5017 29.5966 97.0775 29.2209 96.3139 29.2209C95.6231 29.2209 95.1988 29.536 95.0776 30.0087H93.5868C93.6959 28.8937 94.7019 28.0452 96.3503 28.0452C97.5987 28.0452 99.041 28.5543 99.041 30.3117V34.7115H97.5623V33.8024H97.5139C97.223 34.36 96.6048 34.8448 95.5746 34.8448C94.314 34.8448 93.3687 34.1539 93.3687 32.857ZM94.8595 32.8449C94.8595 33.4146 95.32 33.7055 95.9746 33.7055C96.9078 33.7055 97.5139 33.0873 97.5139 32.348V31.8026C97.229 31.8207 96.3685 31.8813 96.0594 31.8995C95.32 31.9601 94.8595 32.2631 94.8595 32.8449Z" fill="white"/>
<path d="M84.9178 34.7115L83.0513 28.1301H84.6269L85.7905 32.7601H85.8511L87.0268 28.1301H88.5903L89.7781 32.7358H89.8387L90.9902 28.1301H92.5658L90.6993 34.7115H89.0873L87.851 30.2511H87.7661L86.5298 34.7115H84.9178Z" fill="white"/>
<path d="M76.176 37.1841V28.1301H77.6911V29.2088H77.788C78.0305 28.7361 78.5153 28.0452 79.6788 28.0452C81.1939 28.0452 82.3938 29.233 82.3938 31.4268C82.3938 33.5964 81.2303 34.8327 79.6788 34.8327C78.5395 34.8327 78.0305 34.1539 77.788 33.6691H77.7274V37.1841H76.176ZM77.6911 31.4147C77.6911 32.6995 78.2486 33.56 79.2546 33.56C80.2727 33.56 80.8182 32.6631 80.8182 31.4147C80.8182 30.1905 80.2849 29.3058 79.2546 29.3058C78.2486 29.3058 77.6911 30.1421 77.6911 31.4147Z" fill="white"/>
<path d="M73.0337 31.948V28.1301H74.573V34.7115H73.0822V33.5479H73.0094C72.7064 34.2751 72.0156 34.7963 71.0338 34.7963C69.7369 34.7963 68.84 33.8994 68.8279 32.3237V28.1301H70.3793V32.0813C70.3793 32.9176 70.8762 33.4509 71.6277 33.4509C72.3065 33.4509 73.0337 32.954 73.0337 31.948Z" fill="white"/>
<path d="M64.3527 34.8448C62.4377 34.8448 61.2014 33.4873 61.2014 31.4511C61.2014 29.4027 62.4377 28.0452 64.3527 28.0452C66.2799 28.0452 67.5041 29.4027 67.5041 31.4511C67.5041 33.4873 66.2799 34.8448 64.3527 34.8448ZM64.3649 33.6085C65.4193 33.6085 65.9405 32.651 65.9405 31.439C65.9405 30.239 65.4193 29.2694 64.3649 29.2694C63.2861 29.2694 62.765 30.239 62.765 31.439C62.765 32.651 63.2861 33.6085 64.3649 33.6085Z" fill="white"/>
<path d="M56.8958 34.7115V28.1301H58.3987V29.2209H58.4714C58.7017 28.4694 59.3441 28.0331 60.0956 28.0331C60.2652 28.0331 60.5077 28.0452 60.6531 28.0695V29.4997C60.5198 29.4512 60.1925 29.4027 59.938 29.4027C59.0774 29.4027 58.4472 29.9966 58.4472 30.8329V34.7115H56.8958Z" fill="white"/>
<path d="M53.7294 28.7361C53.4506 27.8028 52.7234 27.2332 51.6568 27.2332C50.2387 27.2332 49.2206 28.3361 49.2206 30.3118C49.2206 32.3116 50.2266 33.4146 51.6932 33.4146C53.0143 33.4146 53.8627 32.6146 53.887 31.3662H51.8507V30.1178H55.4141V31.1723C55.4141 33.4267 53.8627 34.8327 51.6932 34.8327C49.2691 34.8327 47.6328 33.1116 47.6328 30.3239C47.6328 27.5119 49.3418 25.8151 51.6447 25.8151C53.584 25.8151 55.0748 27.015 55.3414 28.7361H53.7294Z" fill="white"/>
<path d="M147.237 19.952V0.978592H159.974V4.22819H151.168V8.84051H159.318V12.0901H151.168V16.7024H160V19.952H147.237Z" fill="white"/>
<path d="M143.772 0.978592V19.952H140.365L132.032 7.89708H131.874V19.952H127.943V0.978592H131.403L139.684 13.0335H139.867V0.978592H143.772Z" fill="white"/>
<path d="M124.845 10.4653C124.845 16.65 120.992 20.2141 115.987 20.2141C110.929 20.2141 107.103 16.6238 107.103 10.4653C107.103 4.2806 110.929 0.716528 115.987 0.716528C120.992 0.716528 124.845 4.2806 124.845 10.4653ZM120.835 10.4653C120.835 6.40332 118.922 4.20198 115.987 4.20198C113.052 4.20198 111.112 6.40332 111.112 10.4653C111.112 14.5273 113.052 16.7286 115.987 16.7286C118.922 16.7286 120.835 14.5273 120.835 10.4653Z" fill="white"/>
<path d="M90.6651 19.952V17.5935L100.178 4.22819H90.6389V0.978592H105.105V3.33717L95.6181 16.7024H105.131V19.952H90.6651Z" fill="white"/>
<path d="M87.4356 0.978592V19.952H83.5046V0.978592H87.4356Z" fill="white"/>
<path d="M66.1494 19.952V0.978592H73.6969C77.8899 0.978592 79.9864 2.99649 79.9864 5.85298C79.9864 8.08053 78.545 9.46947 76.5796 9.91498V10.0984C78.7285 10.2032 80.7464 11.9067 80.7464 14.7108C80.7464 17.7245 78.4926 19.952 74.1948 19.952H66.1494ZM73.4086 16.7024C75.6885 16.7024 76.6582 15.759 76.6582 14.3439C76.6582 12.7453 75.4527 11.6184 73.5134 11.6184H70.0804V16.7024H73.4086ZM73.1203 8.91913C74.7713 8.91913 76.003 8.00191 76.003 6.48194C76.003 5.1192 75.0072 4.17577 73.1989 4.17577H70.0804V8.91913H73.1203Z" fill="white"/>
<path d="M47.9036 4.22819V0.978592H63.444V4.22819H57.6261V19.952H53.7214V4.22819H47.9036Z" fill="white"/>
</svg>
